<svg width="24" height="24" viewBox="0 0 24 24" fill="none" xmlns="http://www.w3.org/2000/svg">
<path d="M14.0155 12.0002L22.5819 3.43337C23.1394 2.87613 23.1394 1.97516 22.5819 1.41793C22.0247 0.860691 21.1237 0.860691 20.5665 1.41793L11.9999 9.98472L3.43351 1.41793C2.87603 0.860691 1.97534 0.860691 1.41811 1.41793C0.860629 1.97516 0.860629 2.87613 1.41811 3.43337L9.98447 12.0002L1.41811 20.567C0.860629 21.1242 0.860629 22.0252 1.41811 22.5824C1.69581 22.8604 2.06094 23 2.42581 23C2.79068 23 3.15555 22.8604 3.43351 22.5824L11.9999 14.0156L20.5665 22.5824C20.8444 22.8604 21.2093 23 21.5742 23C21.9391 23 22.3039 22.8604 22.5819 22.5824C23.1394 22.0252 23.1394 21.1242 22.5819 20.567L14.0155 12.0002Z" fill="black"/>
</svg>
